<svg width="68" height="16" viewBox="0 0 68 16" fill="none" xmlns="http://www.w3.org/2000/svg">
    <path d="M7.10258 16C5.63608 16 4.37153 15.6772 3.30894 15.0315C2.24635 14.3792 1.42922 13.4578 0.857529 12.2673C0.285843 11.0702 0 9.65448 0 8.02018C0 6.42623 0.285843 5.02732 0.857529 3.82346C1.42922 2.61959 2.23393 1.68138 3.27166 1.00883C4.31561 0.336275 5.53976 0 6.94412 0C8.20556 0 9.34272 0.289197 10.3556 0.867591C11.3747 1.44599 12.1825 2.3203 12.779 3.49054C13.3756 4.65406 13.6739 6.11349 13.6739 7.86885V9.04918H3.92413V9.05927C3.92413 10.2161 4.21619 11.1274 4.8003 11.7932C5.38441 12.459 6.17359 12.7919 7.16783 12.7919C7.83272 12.7919 8.40752 12.6406 8.89221 12.338C9.3769 12.0353 9.71867 11.5881 9.91751 10.9962L13.59 11.2585C13.3103 12.6978 12.602 13.8478 11.4648 14.7087C10.3276 15.5696 8.87356 16 7.10258 16ZM3.92413 6.38588H9.93616C9.92994 5.46448 9.65652 4.7045 9.11591 4.10593C8.57529 3.50736 7.87311 3.20807 7.00937 3.20807C6.12698 3.20807 5.40306 3.51744 4.83758 4.13619C4.27211 4.75494 3.96763 5.50483 3.92413 6.38588Z"
          fill="#2C4142"/>
    <path d="M22.9725 15.9899C21.6054 15.9899 20.4713 15.6032 19.5703 14.8298C18.6693 14.0563 18.2188 12.9029 18.2188 11.3695C18.2188 10.2127 18.4704 9.30475 18.9738 8.64565C19.4771 7.98655 20.1358 7.50567 20.9498 7.20303C21.7701 6.89365 22.6524 6.69189 23.597 6.59773C24.8398 6.46322 25.7284 6.32198 26.2628 6.17402C26.7972 6.02606 27.0644 5.70324 27.0644 5.20555V5.14502C27.0644 4.5061 26.8779 4.01177 26.5051 3.66204C26.1385 3.31232 25.6165 3.13745 24.9392 3.13745C24.2246 3.13745 23.656 3.30559 23.2334 3.64187C22.8109 3.97814 22.5313 4.40521 22.3946 4.92308L18.7221 4.60025C18.9955 3.18789 19.6728 2.0681 20.7541 1.24086C21.8415 0.413619 23.2428 0 24.9578 0C26.0204 0 27.0147 0.181589 27.9405 0.544766C28.8664 0.907944 29.6121 1.47625 30.1776 2.24968C30.7493 3.01639 31.0351 4.01513 31.0351 5.2459V15.6974H27.2694V13.5486H27.1576C26.8096 14.2682 26.2876 14.8567 25.5917 15.314C24.9019 15.7646 24.0288 15.9899 22.9725 15.9899ZM24.1096 13.024C24.9796 13.024 25.6942 12.7516 26.2534 12.2068C26.8127 11.6553 27.0923 10.9727 27.0923 10.1589V8.5145C26.937 8.62884 26.6946 8.72972 26.3653 8.81715C26.0422 8.90458 25.6942 8.98193 25.3214 9.04918C24.9547 9.10971 24.6254 9.16351 24.3333 9.21059C23.6374 9.3182 23.075 9.53006 22.6462 9.84615C22.2237 10.1623 22.0124 10.623 22.0124 11.2282C22.0124 11.8201 22.2081 12.2673 22.5996 12.57C22.9973 12.8726 23.5007 13.024 24.1096 13.024Z"
          fill="#2C4142"/>
    <path d="M48.6527 4.62043L45.0175 4.86255C44.9181 4.36486 44.6664 3.93779 44.2625 3.58134C43.8586 3.22488 43.3118 3.04666 42.622 3.04666C42.0068 3.04666 41.4848 3.18789 41.0561 3.47037C40.6335 3.74611 40.4254 4.11601 40.4316 4.58008C40.4254 4.94998 40.559 5.26272 40.8324 5.51829C41.112 5.77386 41.5843 5.97898 42.2492 6.13367L44.8404 6.69861C47.5932 7.31063 48.9727 8.70954 48.9789 10.8953C48.9789 11.9109 48.7024 12.802 48.1493 13.5687C47.6025 14.3354 46.8506 14.934 45.8937 15.3644C44.9367 15.7881 43.8399 16 42.6034 16C40.7081 16 39.1981 15.5729 38.0734 14.7188C36.9486 13.8579 36.2931 12.6877 36.1066 11.2081L40.0121 10.9861C40.1364 11.6183 40.4222 12.0958 40.8697 12.4187C41.3233 12.7415 41.9043 12.9029 42.6127 12.9029C43.3086 12.9029 43.8679 12.7549 44.2905 12.459C44.7192 12.1631 44.9367 11.7865 44.9429 11.3291C44.9243 10.5624 44.3122 10.0479 43.1067 9.78562L40.6273 9.25095C37.8559 8.65237 36.4764 7.17612 36.4888 4.82219C36.4826 3.32913 37.0325 2.15216 38.1386 1.2913C39.2509 0.430433 40.7236 0 42.5568 0C44.365 0 45.788 0.413619 46.8258 1.24086C47.8697 2.0681 48.4787 3.19462 48.6527 4.62043Z"
          fill="#2C4142"/>
    <path d="M60.6287 16C59.1622 16 57.8977 15.6772 56.8351 15.0315C55.7725 14.3792 54.9554 13.4578 54.3837 12.2673C53.812 11.0702 53.5261 9.65448 53.5261 8.02018C53.5261 6.42623 53.812 5.02732 54.3837 3.82346C54.9554 2.61959 55.7601 1.68138 56.7978 1.00883C57.8418 0.336275 59.0659 0 60.4703 0C61.7317 0 62.8689 0.289197 63.8817 0.867591C64.9008 1.44599 65.7086 2.3203 66.3052 3.49054C66.9017 4.65406 67.2 6.11349 67.2 7.86885V9.04918H57.4503V9.05927C57.4503 10.2161 57.7423 11.1274 58.3264 11.7932C58.9106 12.459 59.6997 12.7919 60.694 12.7919C61.3589 12.7919 61.9337 12.6406 62.4183 12.338C62.903 12.0353 63.2448 11.5881 63.4436 10.9962L67.1161 11.2585C66.8365 12.6978 66.1281 13.8478 64.9909 14.7087C63.8538 15.5696 62.3997 16 60.6287 16ZM57.4503 6.38588H63.4623C63.4561 5.46448 63.1827 4.7045 62.642 4.10593C62.1014 3.50736 61.3993 3.20807 60.5355 3.20807C59.6531 3.20807 58.9292 3.51744 58.3637 4.13619C57.7982 4.75494 57.4938 5.50483 57.4503 6.38588Z"
          fill="#2C4142"/>
</svg>

