<svg fill="none" height="16" viewBox="0 0 68 16" width="68" xmlns="http://www.w3.org/2000/svg">
    <g fill="#fff">
        <path d="m7.10258 16c-1.4665 0-2.73105-.3228-3.79364-.9685-1.06259-.6523-1.87972-1.5737-2.451411-2.7642-.571686-1.1971-.857529-2.61282-.857529-4.24712 0-1.59395.285843-2.99286.857529-4.19672.571691-1.20387 1.376401-2.14208 2.414131-2.81463 1.04395-.672555 2.2681-1.00883 3.67246-1.00883 1.26144 0 2.3986.289197 3.41148.867591 1.0191.578399 1.8269 1.452709 2.4234 2.622949.5966 1.16352.8949 2.62295.8949 4.37831v1.18033h-9.74977v.01009c0 1.15683.29206 2.06813.87617 2.73393s1.37329.9987 2.36753.9987c.66489 0 1.23969-.1513 1.72438-.4539.48469-.3027.82646-.7499 1.0253-1.3418l3.67249.2623c-.2797 1.4393-.988 2.5893-2.1252 3.4502s-2.59124 1.2913-4.36222 1.2913zm-3.17845-9.61412h6.01203c-.00622-.9214-.27964-1.68138-.82025-2.27995-.54062-.59857-1.2428-.89786-2.10654-.89786-.88239 0-1.60631.30937-2.17179.92812-.56547.61875-.86995 1.36864-.91345 2.24969z"/>
        <path d="m22.9725 15.9899c-1.3671 0-2.5012-.3867-3.4022-1.1601-.901-.7735-1.3515-1.9269-1.3515-3.4603 0-1.1568.2516-2.06475.755-2.72385.5033-.6591 1.162-1.13998 1.976-1.44262.8203-.30938 1.7026-.51114 2.6472-.6053 1.2428-.13451 2.1314-.27575 2.6658-.42371s.8016-.47078.8016-.96847v-.06053c0-.63892-.1865-1.13325-.5593-1.48298-.3666-.34972-.8886-.52459-1.5659-.52459-.7146 0-1.2832.16814-1.7058.50442-.4225.33627-.7021.76334-.8388 1.28121l-3.6725-.32283c.2734-1.41236.9507-2.53215 2.032-3.35939 1.0874-.827241 2.4887-1.24086 4.2037-1.24086 1.0626 0 2.0569.181589 2.9827.544766.9259.363178 1.6716.931484 2.2371 1.704914.5717.76671.8575 1.76545.8575 2.99622v10.4515h-3.7657v-2.1488h-.1118c-.348.7196-.87 1.3081-1.5659 1.7654-.6898.4506-1.5629.6759-2.6192.6759zm1.1371-2.9659c.87 0 1.5846-.2724 2.1438-.8172.5593-.5515.8389-1.2341.8389-2.0479v-1.6444c-.1553.11434-.3977.21522-.727.30265-.3231.08743-.6711.16478-1.0439.23203-.3667.06053-.696.11433-.9881.16141-.6959.10761-1.2583.31947-1.6871.63556-.4225.31615-.6338.77685-.6338 1.38205 0 .5919.1957 1.0391.5872 1.3418.3977.3026.9011.454 1.51.454z"/>
        <path d="m48.6527 4.62043-3.6352.24212c-.0994-.49769-.3511-.92476-.755-1.28121-.4039-.35646-.9507-.53468-1.6405-.53468-.6152 0-1.1372.14123-1.5659.42371-.4226.27574-.6307.64564-.6245 1.10971-.0062.3699.1274.68264.4008.93821.2796.25557.7519.46069 1.4168.61538l2.5912.56494c2.7528.61202 4.1323 2.01093 4.1385 4.19669 0 1.0156-.2765 1.9067-.8296 2.6734-.5468.7667-1.2987 1.3653-2.2556 1.7957-.957.4237-2.0538.6356-3.2903.6356-1.8953 0-3.4053-.4271-4.53-1.2812-1.1248-.8609-1.7803-2.0311-1.9668-3.5107l3.9055-.222c.1243.6322.4101 1.1097.8576 1.4326.4536.3228 1.0346.4842 1.743.4842.6959 0 1.2552-.148 1.6778-.4439.4287-.2959.6462-.6725.6524-1.1299-.0186-.7667-.6307-1.2812-1.8362-1.54348l-2.4794-.53467c-2.7714-.59858-4.1509-2.07483-4.1385-4.42876-.0062-1.49306.5437-2.67003 1.6498-3.53089 1.1123-.860867 2.585-1.2913 4.4182-1.2913 1.8082 0 3.2312.413619 4.269 1.24086 1.0439.82724 1.6529 1.95376 1.8269 3.37957z"/>
        <path d="m60.6287 16c-1.4665 0-2.731-.3228-3.7936-.9685-1.0626-.6523-1.8797-1.5737-2.4514-2.7642-.5717-1.1971-.8576-2.61282-.8576-4.24712 0-1.59395.2859-2.99286.8576-4.19672.5717-1.20387 1.3764-2.14208 2.4141-2.81463 1.044-.672555 2.2681-1.00883 3.6725-1.00883 1.2614 0 2.3986.289197 3.4114.867591 1.0191.578399 1.8269 1.452709 2.4235 2.622949.5965 1.16352.8948 2.62295.8948 4.37831v1.18033h-9.7497v.01009c0 1.15683.292 2.06813.8761 2.73393.5842.6658 1.3733.9987 2.3676.9987.6649 0 1.2397-.1513 1.7243-.4539.4847-.3027.8265-.7499 1.0253-1.3418l3.6725.2623c-.2796 1.4393-.988 2.5893-2.1252 3.4502-1.1371.8609-2.5912 1.2913-4.3622 1.2913zm-3.1784-9.61412h6.012c-.0062-.9214-.2796-1.68138-.8203-2.27995-.5406-.59857-1.2427-.89786-2.1065-.89786-.8824 0-1.6063.30937-2.1718.92812s-.8699 1.36864-.9134 2.24969z"/>
    </g>
</svg>
